<svg xmlns="http://www.w3.org/2000/svg" viewBox="0 0 929.91 568.95"><defs><style>.cls-1,.cls-11,.cls-12,.cls-13,.cls-14,.cls-15,.cls-16,.cls-17,.cls-18,.cls-2,.cls-4,.cls-5,.cls-6,.cls-7,.cls-8,.cls-9{isolation:isolate;}.cls-1,.cls-3{font-size:28px;font-family:PingFangSC-Light-GBpc-EUC-H, PingFang SC;font-weight:300;}.cls-1,.cls-10,.cls-3,.cls-4{fill:#f4f5fa;}.cls-4{font-size:32px;font-family:PingFangSC-Medium-GBpc-EUC-H, PingFang SC;}.cls-11,.cls-12,.cls-13,.cls-14,.cls-15,.cls-16,.cls-17,.cls-18,.cls-5,.cls-6,.cls-7,.cls-8,.cls-9{fill:none;opacity:0.9;}.cls-5,.cls-6,.cls-7,.cls-8,.cls-9{stroke:#f4c795;}.cls-5{stroke-width:82.02px;}.cls-6{stroke-width:103.41px;}.cls-7{stroke-width:71.32px;}.cls-12,.cls-15,.cls-8{stroke-width:14.26px;}.cls-13,.cls-16,.cls-9{stroke-width:10.7px;}.cls-11,.cls-12,.cls-13,.cls-14{stroke:#c47e4e;}.cls-11{stroke-width:49.92px;}.cls-14{stroke-width:42.79px;}.cls-15,.cls-16,.cls-17{stroke:#8e9e8b;}.cls-17{stroke-width:7.13px;}.cls-18{stroke:#2255a0;stroke-width:17.83px;}</style></defs><title>freq_dist</title><g id="图层_3" data-name="图层 3"><text class="cls-1" transform="translate(2 562.91)">频繁</text><text class="cls-1" transform="translate(2 527.6)">较多</text><text class="cls-1" transform="translate(2 443.8)">较少</text><text class="cls-1" transform="translate(2 232.59)">极少</text><text class="cls-1" transform="translate(840.8 393.97)">满意</text><g class="cls-2"><text class="cls-3" transform="translate(840.8 519.9)">非常<tspan x="0" y="35">满意</tspan></text></g><text class="cls-1" transform="translate(840.8 261.25)">一般</text><text class="cls-1" transform="translate(840.8 167.69)">不满意</text><text class="cls-1" transform="translate(840.8 88.48)">非常<tspan x="0" y="35">不满意</tspan></text><text class="cls-4" transform="translate(2 36.99)">频率</text><text class="cls-4" transform="translate(700.8 36.99)">对师生关系打分</text><path class="cls-5" d="M88.47,139.85c363.8,0,363.8,82.8,727.6,82.8"/><path class="cls-6" d="M88.47,232.55c363.8,0,363.8,142.7,727.6,142.7"/><path class="cls-7" d="M88.47,320c363.8,0,363.8,202.6,727.6,202.6"/><path class="cls-8" d="M88.47,91.75c363.8,0,363.8,47.8,727.6,47.8"/><path class="cls-9" d="M88.47,79.25c363.8,0,363.8-5,727.6-5"/><rect class="cls-10" x="84.13" y="73.95" width="4.34" height="281.7"/><rect class="cls-10" x="84.13" y="365.65" width="4.34" height="128.4"/><rect class="cls-10" x="84.13" y="503.95" width="4.34" height="32.1"/><rect class="cls-10" x="84.13" y="546.05" width="4.34" height="17.8"/><rect class="cls-10" x="816.07" y="68.95" width="4.34" height="53.5"/><rect class="cls-10" x="816.07" y="132.35" width="4.34" height="39.2"/><rect class="cls-10" x="816.07" y="181.65" width="4.34" height="131.9"/><rect class="cls-10" x="816.07" y="323.55" width="4.34" height="153.3"/><rect class="cls-10" x="816.07" y="486.85" width="4.34" height="82"/><path class="cls-11" d="M88.47,458.35c363.8,0,363.8-6.4,727.6-6.4"/><path class="cls-12" d="M88.47,383.45c363.8,0,363.8-229.7,727.6-229.7"/><path class="cls-13" d="M88.47,488.65c363.8,0,363.8,74.9,727.6,74.9"/><path class="cls-14" d="M88.47,412c363.8,0,363.8-126.9,727.6-126.9"/><path class="cls-13" d="M88.47,371c363.8,0,363.8-286,727.6-286"/><path class="cls-15" d="M88.47,511.15c363.8,0,363.8-413.7,727.6-413.7"/><path class="cls-16" d="M88.47,523.55c363.8,0,363.8-357.3,727.6-357.3"/><path class="cls-17" d="M88.47,532.55c363.8,0,363.8-222.5,727.6-222.5"/><path class="cls-18" d="M88.47,555c363.8,0,363.8-441.5,727.6-441.5"/></g></svg>