<svg xmlns="http://www.w3.org/2000/svg" viewBox="0 0 930.91 566.13"><defs><style>.cls-1,.cls-3,.cls-4,.cls-5,.cls-7,.cls-9{isolation:isolate;}.cls-1{font-size:28px;font-family:PingFangSC-Light-GBpc-EUC-H, PingFang SC;font-weight:300;}.cls-1,.cls-2,.cls-8{fill:#f4f5fa;}.cls-2{font-size:32px;font-family:PingFangSC-Medium-GBpc-EUC-H, PingFang SC;}.cls-3,.cls-4,.cls-5,.cls-6,.cls-7,.cls-9{fill:none;}.cls-3,.cls-4{stroke:#f4c795;}.cls-3{stroke-width:251.4px;}.cls-3,.cls-4,.cls-5,.cls-7,.cls-9{opacity:0.9;}.cls-4{stroke-width:36.43px;}.cls-5,.cls-6{stroke:#c47e4e;}.cls-5{stroke-width:80.15px;}.cls-6{stroke-width:51.01px;}.cls-7{stroke:#8e9e8b;stroke-width:32.79px;}.cls-9{stroke:#2255a0;stroke-width:18.22px;}</style></defs><title>freq_dist</title><g id="图层_3" data-name="图层 3"><text class="cls-1" transform="translate(3 557.31)">频繁</text><text class="cls-1" transform="translate(3 521.33)">较多</text><text class="cls-1" transform="translate(852.8 150.38)">有</text><text class="cls-1" transform="translate(852.8 367.72)">无</text><text class="cls-1" transform="translate(3 431.13)">较少</text><text class="cls-1" transform="translate(3 207.82)">极少</text><text class="cls-2" transform="translate(3 34.85)">频率</text><text class="cls-2" transform="translate(792.41 34.85) scale(1.04 1)">心理困扰</text><path class="cls-3" d="M85.13,221.52c362.69,0,362.69,122,725.39,122"/><path class="cls-4" d="M85.13,77.62c362.69,0,362.69,10,725.39,10"/><path class="cls-5" d="M85.13,448.32c362.69,0,362.69,61,725.39,61"/><path class="cls-6" d="M85.13,382.72c362.69,0,362.69-251.4,725.39-251.4"/><path class="cls-7" d="M85.13,514.82c362.69,0,362.69-341.6,725.39-341.6"/><rect class="cls-8" x="810.52" y="69.42" width="4.33" height="138.4"/><rect class="cls-8" x="810.52" y="217.82" width="4.33" height="331.6"/><rect class="cls-8" x="80.8" y="59.42" width="4.33" height="287.8"/><rect class="cls-8" x="80.8" y="357.22" width="4.33" height="131.2"/><rect class="cls-8" x="80.8" y="498.42" width="4.33" height="32.8"/><rect class="cls-8" x="80.8" y="541.22" width="4.33" height="18.2"/><path class="cls-9" d="M85.13,550.32c362.69,0,362.69-351.6,725.39-351.6"/></g></svg>