<svg xmlns="http://www.w3.org/2000/svg" viewBox="0 0 216 164"><defs><style>.cls-1{font-size:15.33px;fill:#e0dede;font-family:PingFangSC-Light-GBpc-EUC-H, PingFang SC;}.cls-2{fill:#872535;}.cls-3{fill:none;stroke:#872535;stroke-miterlimit:10;stroke-width:5px;}</style></defs><title>legend</title><g id="sishi_legend"><text class="cls-1" transform="translate(58.67 15.06)">未得到报酬的脑力劳动</text><path class="cls-2" d="M.71,10.33c1.37,1.16,3.72.52,5.23.64,1.87.16,3.75,0,5.61,0H23.27c5.75,0,11.42-.7,17.14-.67"/><path class="cls-3" d="M.71,10.33c1.37,1.16,3.72.52,5.23.64,1.87.16,3.75,0,5.61,0H23.27c5.75,0,11.42-.7,17.14-.67"/><path class="cls-2" d="M.71,10.33c1.37,1.16,3.72.52,5.23.64,1.87.16,3.75,0,5.61,0H23.27c5.75,0,11.42-.7,17.14-.67"/><path class="cls-3" d="M.71,10.33c1.37,1.16,3.72.52,5.23.64,1.87.16,3.75,0,5.61,0H23.27c5.75,0,11.42-.7,17.14-.67"/></g></svg>