<svg xmlns="http://www.w3.org/2000/svg" viewBox="0 0 216 164"><defs><style>.cls-1{font-size:15.33px;fill:#e0dede;font-family:PingFangSC-Light-GBpc-EUC-H, PingFang SC;}.cls-2{fill:#872535;}.cls-3,.cls-5{fill:none;stroke-miterlimit:10;stroke-width:5px;}.cls-3{stroke:#872535;}.cls-4{fill:#f4bd7a;}.cls-5{stroke:#f4bd7a;}</style></defs><title>legend2</title><g id="sishi_legend"><text class="cls-1" transform="translate(58.67 15.06)">未得到报酬的脑力劳动</text><path class="cls-2" d="M.71,10.33c1.37,1.16,3.72.52,5.23.64,1.87.16,3.75,0,5.61,0H23.27c5.75,0,11.42-.7,17.14-.67"/><path class="cls-3" d="M.71,10.33c1.37,1.16,3.72.52,5.23.64,1.87.16,3.75,0,5.61,0H23.27c5.75,0,11.42-.7,17.14-.67"/><path class="cls-2" d="M.71,10.33c1.37,1.16,3.72.52,5.23.64,1.87.16,3.75,0,5.61,0H23.27c5.75,0,11.42-.7,17.14-.67"/><path class="cls-3" d="M.71,10.33c1.37,1.16,3.72.52,5.23.64,1.87.16,3.75,0,5.61,0H23.27c5.75,0,11.42-.7,17.14-.67"/><text class="cls-1" transform="translate(58.67 35.97)">跑腿类</text><g id="跑腿"><path class="cls-4" d="M.71,32.08c1.37,1.16,3.72.52,5.23.64,1.87.16,3.75,0,5.61,0H23.27c5.75,0,11.42-.7,17.14-.67"/><path class="cls-5" d="M.71,32.08c1.37,1.16,3.72.52,5.23.64,1.87.16,3.75,0,5.61,0H23.27c5.75,0,11.42-.7,17.14-.67"/></g><path class="cls-4" d="M.71,31.26c1.37,1.16,3.72.51,5.23.64,1.87.16,3.75,0,5.61,0H23.27c5.75,0,11.42-.7,17.14-.67"/><path class="cls-5" d="M.71,31.26c1.37,1.16,3.72.51,5.23.64,1.87.16,3.75,0,5.61,0H23.27c5.75,0,11.42-.7,17.14-.67"/></g></svg>