<svg xmlns="http://www.w3.org/2000/svg" viewBox="0 0 216 164"><defs><style>.cls-1{font-size:15.33px;fill:#e0dede;font-family:PingFangSC-Light-GBpc-EUC-H, PingFang SC;}.cls-2{fill:#872535;}.cls-3,.cls-5,.cls-7,.cls-9{fill:none;stroke-miterlimit:10;stroke-width:5px;}.cls-3{stroke:#872535;}.cls-4{fill:#f4bd7a;}.cls-5{stroke:#f4bd7a;}.cls-6{fill:#8e9e8b;}.cls-7{stroke:#8e9e8b;}.cls-8{fill:#97d5ee;}.cls-9{stroke:#97d5ee;}</style></defs><title>legend4</title><g id="sishi_legend"><text class="cls-1" transform="translate(58.67 15.06)">未得到报酬的脑力劳动</text><path class="cls-2" d="M.71,10.33c1.37,1.16,3.72.52,5.23.64,1.87.16,3.75,0,5.61,0H23.27c5.75,0,11.42-.7,17.14-.67"/><path class="cls-3" d="M.71,10.33c1.37,1.16,3.72.52,5.23.64,1.87.16,3.75,0,5.61,0H23.27c5.75,0,11.42-.7,17.14-.67"/><path class="cls-2" d="M.71,10.33c1.37,1.16,3.72.52,5.23.64,1.87.16,3.75,0,5.61,0H23.27c5.75,0,11.42-.7,17.14-.67"/><path class="cls-3" d="M.71,10.33c1.37,1.16,3.72.52,5.23.64,1.87.16,3.75,0,5.61,0H23.27c5.75,0,11.42-.7,17.14-.67"/><text class="cls-1" transform="translate(58.67 35.97)">跑腿类</text><g id="跑腿"><path class="cls-4" d="M.71,32.08c1.37,1.16,3.72.52,5.23.64,1.87.16,3.75,0,5.61,0H23.27c5.75,0,11.42-.7,17.14-.67"/><path class="cls-5" d="M.71,32.08c1.37,1.16,3.72.52,5.23.64,1.87.16,3.75,0,5.61,0H23.27c5.75,0,11.42-.7,17.14-.67"/></g><path class="cls-4" d="M.71,31.26c1.37,1.16,3.72.51,5.23.64,1.87.16,3.75,0,5.61,0H23.27c5.75,0,11.42-.7,17.14-.67"/><path class="cls-5" d="M.71,31.26c1.37,1.16,3.72.51,5.23.64,1.87.16,3.75,0,5.61,0H23.27c5.75,0,11.42-.7,17.14-.67"/><text class="cls-1" transform="translate(58.67 56.88)">打扫卫生</text><g id="打扫"><path class="cls-6" d="M.71,52.19c1.37,1.16,3.72.51,5.23.64,1.87.15,3.75,0,5.61,0H23.27c5.75,0,11.42-.7,17.14-.67"/><path class="cls-7" d="M.71,52.19c1.37,1.16,3.72.51,5.23.64,1.87.15,3.75,0,5.61,0H23.27c5.75,0,11.42-.7,17.14-.67"/><g id="打扫-2" data-name="打扫"><path class="cls-6" d="M.71,52.19c1.37,1.16,3.72.51,5.23.64,1.87.15,3.75,0,5.61,0H23.27c5.75,0,11.42-.7,17.14-.67"/><path class="cls-7" d="M.71,52.19c1.37,1.16,3.72.51,5.23.64,1.87.15,3.75,0,5.61,0H23.27c5.75,0,11.42-.7,17.14-.67"/></g></g><text class="cls-1" transform="translate(58.67 77.79)">照顾家人</text><g id="照顾"><path class="cls-8" d="M.71,73.12c1.37,1.16,3.72.51,5.23.64,1.87.15,3.75,0,5.61,0H23.27c5.75,0,11.42-.7,17.14-.67"/><path class="cls-9" d="M.71,73.12c1.37,1.16,3.72.51,5.23.64,1.87.15,3.75,0,5.61,0H23.27c5.75,0,11.42-.7,17.14-.67"/><path class="cls-8" d="M.71,73.12c1.37,1.16,3.72.51,5.23.64,1.87.15,3.75,0,5.61,0H23.27c5.75,0,11.42-.7,17.14-.67"/><path class="cls-9" d="M.71,73.12c1.37,1.16,3.72.51,5.23.64,1.87.15,3.75,0,5.61,0H23.27c5.75,0,11.42-.7,17.14-.67"/></g></g></svg>