<svg xmlns="http://www.w3.org/2000/svg" viewBox="0 0 216 164"><defs><style>.cls-1{font-size:15.33px;fill:#e0dede;font-family:PingFangSC-Light-GBpc-EUC-H, PingFang SC;}.cls-2{fill:#872535;}.cls-11,.cls-13,.cls-15,.cls-3,.cls-5,.cls-7,.cls-9{fill:none;stroke-miterlimit:10;stroke-width:5px;}.cls-3{stroke:#872535;}.cls-4{fill:#f4bd7a;}.cls-5{stroke:#f4bd7a;}.cls-6{fill:#8e9e8b;}.cls-7{stroke:#8e9e8b;}.cls-8{fill:#97d5ee;}.cls-9{stroke:#97d5ee;}.cls-10{fill:#eba4aa;}.cls-11{stroke:#eba4aa;}.cls-12{fill:#8c481b;}.cls-13{stroke:#7a471e;}.cls-14{fill:#2255a0;}.cls-15{stroke:#2255a0;}</style></defs><title>legend8</title><g id="sishi_legend"><text class="cls-1" transform="translate(58.67 15.06)">未得到报酬的脑力劳动</text><path class="cls-2" d="M.71,10.33c1.37,1.16,3.72.52,5.23.64,1.87.16,3.75,0,5.61,0H23.27c5.75,0,11.42-.7,17.14-.67"/><path class="cls-3" d="M.71,10.33c1.37,1.16,3.72.52,5.23.64,1.87.16,3.75,0,5.61,0H23.27c5.75,0,11.42-.7,17.14-.67"/><path class="cls-2" d="M.71,10.33c1.37,1.16,3.72.52,5.23.64,1.87.16,3.75,0,5.61,0H23.27c5.75,0,11.42-.7,17.14-.67"/><path class="cls-3" d="M.71,10.33c1.37,1.16,3.72.52,5.23.64,1.87.16,3.75,0,5.61,0H23.27c5.75,0,11.42-.7,17.14-.67"/><text class="cls-1" transform="translate(58.67 35.97)">跑腿类</text><g id="跑腿"><path class="cls-4" d="M.71,32.08c1.37,1.16,3.72.52,5.23.64,1.87.16,3.75,0,5.61,0H23.27c5.75,0,11.42-.7,17.14-.67"/><path class="cls-5" d="M.71,32.08c1.37,1.16,3.72.52,5.23.64,1.87.16,3.75,0,5.61,0H23.27c5.75,0,11.42-.7,17.14-.67"/></g><path class="cls-4" d="M.71,31.26c1.37,1.16,3.72.51,5.23.64,1.87.16,3.75,0,5.61,0H23.27c5.75,0,11.42-.7,17.14-.67"/><path class="cls-5" d="M.71,31.26c1.37,1.16,3.72.51,5.23.64,1.87.16,3.75,0,5.61,0H23.27c5.75,0,11.42-.7,17.14-.67"/><text class="cls-1" transform="translate(58.67 56.88)">打扫卫生</text><g id="打扫"><path class="cls-6" d="M.71,52.19c1.37,1.16,3.72.51,5.23.64,1.87.15,3.75,0,5.61,0H23.27c5.75,0,11.42-.7,17.14-.67"/><path class="cls-7" d="M.71,52.19c1.37,1.16,3.72.51,5.23.64,1.87.15,3.75,0,5.61,0H23.27c5.75,0,11.42-.7,17.14-.67"/><g id="打扫-2" data-name="打扫"><path class="cls-6" d="M.71,52.19c1.37,1.16,3.72.51,5.23.64,1.87.15,3.75,0,5.61,0H23.27c5.75,0,11.42-.7,17.14-.67"/><path class="cls-7" d="M.71,52.19c1.37,1.16,3.72.51,5.23.64,1.87.15,3.75,0,5.61,0H23.27c5.75,0,11.42-.7,17.14-.67"/></g></g><text class="cls-1" transform="translate(58.67 77.79)">照顾家人</text><g id="照顾"><path class="cls-8" d="M.71,73.12c1.37,1.16,3.72.51,5.23.64,1.87.15,3.75,0,5.61,0H23.27c5.75,0,11.42-.7,17.14-.67"/><path class="cls-9" d="M.71,73.12c1.37,1.16,3.72.51,5.23.64,1.87.15,3.75,0,5.61,0H23.27c5.75,0,11.42-.7,17.14-.67"/><path class="cls-8" d="M.71,73.12c1.37,1.16,3.72.51,5.23.64,1.87.15,3.75,0,5.61,0H23.27c5.75,0,11.42-.7,17.14-.67"/><path class="cls-9" d="M.71,73.12c1.37,1.16,3.72.51,5.23.64,1.87.15,3.75,0,5.61,0H23.27c5.75,0,11.42-.7,17.14-.67"/></g><text class="cls-1" transform="translate(58.67 98.7)">饭局挡酒</text><g id="挡酒"><path class="cls-10" d="M1.67,94.05c1.38,1.16,3.73.51,5.24.64,1.87.15,3.75,0,5.61,0H24.24c5.75,0,11.42-.69,17.14-.66"/><path class="cls-11" d="M1.67,94.05c1.38,1.16,3.73.51,5.24.64,1.87.15,3.75,0,5.61,0H24.24c5.75,0,11.42-.69,17.14-.66"/><path class="cls-10" d="M1.67,94.05c1.38,1.16,3.73.51,5.24.64,1.87.15,3.75,0,5.61,0H24.24c5.75,0,11.42-.69,17.14-.66"/><path class="cls-11" d="M1.67,94.05c1.38,1.16,3.73.51,5.24.64,1.87.15,3.75,0,5.61,0H24.24c5.75,0,11.42-.69,17.14-.66"/></g><text class="cls-1" transform="translate(58.67 119.61)">办理程序性手续</text><g id="填表"><path class="cls-12" d="M1.19,115c1.37,1.15,3.72.51,5.24.63,1.86.16,3.74,0,5.61,0H23.75c5.75,0,11.43-.7,17.15-.66"/><path class="cls-13" d="M1.19,115c1.37,1.15,3.72.51,5.24.63,1.86.16,3.74,0,5.61,0H23.75c5.75,0,11.43-.7,17.15-.66"/></g><text class="cls-1" transform="translate(58.67 140.51)">发生性关系</text><g id="性关系"><path class="cls-14" d="M0,135.9c1.37,1.16,3.72.52,5.24.64,1.86.16,3.74,0,5.61,0H22.56c5.75,0,11.43-.7,17.15-.67"/><path class="cls-15" d="M0,135.9c1.37,1.16,3.72.52,5.24.64,1.86.16,3.74,0,5.61,0H22.56c5.75,0,11.43-.7,17.15-.67"/><path class="cls-14" d="M0,135.9c1.37,1.16,3.72.52,5.24.64,1.86.16,3.74,0,5.61,0H22.56c5.75,0,11.43-.7,17.15-.67"/><path class="cls-15" d="M0,135.9c1.37,1.16,3.72.52,5.24.64,1.86.16,3.74,0,5.61,0H22.56c5.75,0,11.43-.7,17.15-.67"/><path class="cls-14" d="M0,135.9c1.37,1.16,3.72.52,5.24.64,1.86.16,3.74,0,5.61,0H22.56c5.75,0,11.43-.7,17.15-.67"/><path class="cls-15" d="M0,135.9c1.37,1.16,3.72.52,5.24.64,1.86.16,3.74,0,5.61,0H22.56c5.75,0,11.43-.7,17.15-.67"/><path class="cls-14" d="M0,135.9c1.37,1.16,3.72.52,5.24.64,1.86.16,3.74,0,5.61,0H22.56c5.75,0,11.43-.7,17.15-.67"/><path class="cls-15" d="M0,135.9c1.37,1.16,3.72.52,5.24.64,1.86.16,3.74,0,5.61,0H22.56c5.75,0,11.43-.7,17.15-.67"/></g></g></svg>